<svg width="1920" height="1080" viewBox="0 0 1920 1080" xmlns="http://www.w3.org/2000/svg"><rect width="1920" height="1080" fill="#ffffff"/><path d="M 0,1080 C 0,1080 0,180 0,180 C 21.837320574162675,197.7511961722488 43.67464114832535,215.50239234449762 171,201 C 298.32535885167465,186.49760765550238 531.1387559808612,139.74162679425837 687,135 C 842.8612440191388,130.25837320574163 921.7703349282297,167.5311004784689 1034,174 C 1146.2296650717703,180.4688995215311 1291.77990430622,156.13397129186603 1445,152 C 1598.22009569378,147.86602870813397 1759.11004784689,163.93301435406698 1920,180 C 1920,180 1920,1080 1920,1080 Z" fill="#20b9eb" opacity="0.09999999999999999"/><path d="M 0,1080 C 0,1080 0,360 0,360 C 13.425837320574146,362.2392344497608 26.851674641148293,364.47846889952154 177,356 C 327.1483253588517,347.52153110047846 614.019138755981,328.32535885167465 808,318 C 1001.980861244019,307.67464114832535 1103.0717703349283,306.22009569377985 1215,328 C 1326.9282296650717,349.77990430622015 1449.693779904306,394.79425837320576 1569,404 C 1688.306220095694,413.20574162679424 1804.153110047847,386.6028708133971 1920,360 C 1920,360 1920,1080 1920,1080 Z" fill="#20b9eb" opacity="0.19999999999999998"/><path d="M 0,1080 C 0,1080 0,540 0,540 C 65.56937799043064,510.32535885167465 131.13875598086128,480.65071770334924 302,479 C 472.8612440191387,477.34928229665076 749.0143540669857,503.72248803827756 866,504 C 982.9856459330143,504.27751196172244 940.8038277511962,478.4593301435407 1045,477 C 1149.1961722488038,475.5406698564593 1399.7703349282297,498.4401913875598 1570,513 C 1740.2296650717703,527.5598086124402 1830.1148325358852,533.77990430622 1920,540 C 1920,540 1920,1080 1920,1080 Z" fill="#20b9eb" opacity="0.3"/><path d="M 0,1080 C 0,1080 0,720 0,720 C 69.09090909090907,701.1483253588517 138.18181818181813,682.2966507177033 206,671 C 273.81818181818187,659.7033492822967 340.3636363636365,655.9617224880383 553,673 C 765.6363636363635,690.0382775119617 1124.3636363636363,727.8564593301436 1264,732 C 1403.6363636363637,736.1435406698564 1324.1818181818182,706.6124401913875 1397,699 C 1469.8181818181818,691.3875598086125 1694.909090909091,705.6937799043062 1920,720 C 1920,720 1920,1080 1920,1080 Z" fill="#20b9eb" opacity="0.39999999999999997"/><path d="M 0,1080 C 0,1080 0,900 0,900 C 155.1866028708134,920.3827751196172 310.3732057416268,940.7655502392345 404,957 C 497.6267942583732,973.2344497607655 529.6937799043062,985.3205741626793 616,958 C 702.3062200956938,930.6794258373207 842.8516746411483,863.9521531100479 978,855 C 1113.1483253588517,846.0478468899521 1242.8995215311004,894.8708133971292 1399,912 C 1555.1004784688996,929.1291866028708 1737.5502392344497,914.5645933014355 1920,900 C 1920,900 1920,1080 1920,1080 Z" fill="#20b9eb" opacity="0.49999999999999994"/></svg>